<svg width="29" height="41" viewBox="0 0 29 41" fill="none" xmlns="http://www.w3.org/2000/svg">
<path d="M8.96955 35.6301C7.80086 36.4034 6.2168 35.8517 5.78123 34.5198C5.4169 33.4057 6.02469 32.2073 7.13876 31.8429L19.1402 27.9182C19.337 27.8539 19.5511 27.9436 19.6433 28.1289C19.737 28.3174 19.6756 28.5463 19.5 28.6624L8.96955 35.6301Z" fill="#015645"/>
<path d="M17.3718 4.27335C16.7463 3.01932 15.0987 2.70501 14.0555 3.64073C13.1829 4.42338 13.11 5.76518 13.8927 6.63773L22.3239 16.0374C22.4621 16.1915 22.6924 16.2209 22.8649 16.1064C23.0403 15.99 23.1015 15.7611 23.0076 15.5727L17.3718 4.27335Z" fill="#015645"/>
<path d="M6.71734 20.9143C5.32133 20.7919 4.42504 19.3741 4.91333 18.0606C5.32174 16.9619 6.54347 16.4023 7.64215 16.8107L19.4777 21.2104C19.6718 21.2825 19.7835 21.4861 19.7403 21.6885C19.6963 21.8944 19.5057 22.0352 19.296 22.0168L6.71734 20.9143Z" fill="#015645"/>
</svg>
