<svg width="26" height="40" viewBox="0 0 26 40" fill="none" xmlns="http://www.w3.org/2000/svg">
<path d="M11.0912 3.42701C11.844 2.24506 13.5155 2.10432 14.4554 3.14374C15.2415 4.01314 15.174 5.35522 14.3046 6.14138L4.93899 14.6103C4.78545 14.7491 4.55332 14.7543 4.3937 14.6225C4.23136 14.4885 4.19439 14.2545 4.3075 14.0769L11.0912 3.42701Z" fill="#015645"/>
<path d="M16.1765 35.4892C17.2581 36.3801 18.8911 35.9968 19.4632 34.7175C19.9418 33.6475 19.4623 32.3922 18.3923 31.9136L6.86572 26.7585C6.67676 26.674 6.4544 26.7408 6.34341 26.9156C6.23051 27.0933 6.26777 27.3273 6.43028 27.4611L16.1765 35.4892Z" fill="#015645"/>
<path d="M19.137 15.9527C20.462 15.4964 21.8577 16.4267 21.9462 17.8253C22.0202 18.9951 21.1319 20.0034 19.9621 20.0774L7.36044 20.8749C7.15385 20.888 6.96894 20.7476 6.92607 20.545C6.88248 20.3391 6.99923 20.1329 7.19829 20.0643L19.137 15.9527Z" fill="#015645"/>
</svg>
