<svg width="288" height="940" viewBox="0 0 288 940" fill="none" xmlns="http://www.w3.org/2000/svg">
<g opacity="0.5" clip-path="url(#clip0_9_460)">
<g opacity="0.2">
<path d="M0 764.974C2.04944 763.24 4.12016 761.531 6.21925 759.861C29.0468 741.798 54.4982 727.922 78.6731 712.036C95.5509 700.131 107.84 687.625 116.79 675.728C134.845 651.737 141.327 621.001 138.384 590.598C132.256 527.228 100.955 495.352 100.955 495.352C130.789 571.008 97.8272 624.365 97.8272 624.365C77.3115 656.937 30.302 683.256 30.302 683.256C20.0831 689.105 9.94937 695.137 0 701.493V764.974Z" fill="#BB9960"/>
<path d="M39.6553 638.043C47.9736 636.064 75.5666 626.352 93.345 608.115C110.975 590.02 117.045 569.781 119.144 561.105C120.279 554.409 121.612 541.428 117.385 526.08C113.137 510.661 105.351 500.386 100.968 495.352C100.181 504.431 96.2951 537.169 70.1842 562.942C53.7745 579.144 30.7342 585.334 21.3096 587.828C28.1741 602.653 33.1027 617.297 39.6553 638.043Z" fill="#BB9960"/>
<path d="M0 579.303C17.672 602.914 27.4796 633.31 32.9329 663.206C33.4577 663.174 33.9257 663.063 34.3441 662.881C37.897 661.322 37.7977 654.713 36.4219 650.28C26.8059 619.418 16.2963 587.25 0.0070915 560.013V579.303H0Z" fill="#BB9960"/>
<path d="M101.154 1164.49C98.2956 1152.84 96.7142 1140.69 95.9555 1128.7C94.6152 1107.62 95.9555 1084.01 109.926 1067.38C118.989 1056.58 131.441 1049.34 142.922 1041.8C154.779 1034 166.941 1026.73 179.231 1019.71C179.231 1019.71 226.233 993.388 246.756 960.816C246.756 960.816 279.725 907.458 249.884 831.803C249.884 831.803 281.185 863.678 287.312 927.049C290.255 957.452 283.774 988.187 265.719 1012.18C256.762 1024.08 244.473 1036.58 227.602 1048.49C203.427 1064.37 177.976 1078.25 155.148 1096.31C143.695 1105.38 132.888 1115.47 123.832 1127.18C114.861 1138.78 109.202 1152.29 101.154 1164.49" fill="#BB9960"/>
<path d="M188.584 974.494C196.902 972.515 224.495 962.803 242.274 944.566C259.903 926.471 265.974 906.232 268.073 897.556C269.207 890.86 270.54 877.879 266.314 862.531C262.066 847.112 254.28 836.837 249.897 831.803C249.11 840.882 245.224 873.62 219.113 899.393C202.703 915.595 179.663 921.785 170.238 924.279C177.103 939.104 182.031 953.748 188.584 974.494Z" fill="#BB9960"/>
<path d="M0 1081.71C19.4733 1121.14 34.8122 1164.04 34.3725 1208.96C34.2661 1220.01 32.4082 1231.02 29.0255 1241.49C24.0686 1256.82 15.8921 1270.92 5.60938 1282.96C3.80104 1285.08 1.92889 1287.13 0 1289.11V1297.19C7.97085 1292.1 15.7644 1286.67 23.2034 1280.76C39.684 1267.64 54.6045 1251.91 64.4546 1232.66C93.5156 1175.86 71.8865 1116.06 46.1089 1062.96C26.4655 1022.49 -12.6796 969.365 7.66591 921.683C28.288 873.335 91.9768 865.238 129.576 895.522C159.928 919.973 174.678 960.262 181.862 999.665C182.386 999.633 182.854 999.522 183.273 999.34C186.826 997.781 186.726 991.172 185.351 986.739C169.87 937.046 152.084 883.974 111.535 853.539C90.3032 837.605 63.6391 829.342 37.663 832.104C24.4728 833.489 11.545 837.819 0 844.634V1081.71Z" fill="#BB9960"/>
</g>
</g>
<g opacity="0.5" clip-path="url(#clip1_9_460)">
<g opacity="0.2">
<path d="M0 175.526C2.04944 177.26 4.12016 178.969 6.21925 180.639C29.0468 198.702 54.4982 212.578 78.6731 228.464C95.5509 240.369 107.84 252.875 116.79 264.772C134.845 288.763 141.327 319.499 138.384 349.902C132.256 413.272 100.955 445.148 100.955 445.148C130.789 369.492 97.8272 316.135 97.8272 316.135C77.3115 283.563 30.302 257.244 30.302 257.244C20.0831 251.395 9.94937 245.363 0 239.007V175.526Z" fill="#BB9960"/>
<path d="M39.6553 302.457C47.9736 304.436 75.5666 314.148 93.345 332.385C110.975 350.48 117.045 370.719 119.144 379.395C120.279 386.091 121.612 399.072 117.385 414.42C113.137 429.839 105.351 440.114 100.968 445.148C100.181 436.069 96.2951 403.331 70.1842 377.558C53.7745 361.356 30.7342 355.166 21.3096 352.672C28.1741 337.847 33.1027 323.203 39.6553 302.457Z" fill="#BB9960"/>
<path d="M0 361.197C17.672 337.586 27.4796 307.19 32.9329 277.294C33.4577 277.326 33.9257 277.437 34.3441 277.619C37.897 279.178 37.7977 285.787 36.4219 290.22C26.8059 321.082 16.2963 353.25 0.0070915 380.487V361.197H0Z" fill="#BB9960"/>
<path d="M101.154 -223.995C98.2956 -212.343 96.7142 -200.185 95.9555 -188.201C94.6152 -167.123 95.9555 -143.511 109.926 -126.881C118.989 -116.084 131.441 -108.842 142.922 -101.299C154.779 -93.5019 166.941 -86.2277 179.231 -79.2068C179.231 -79.2068 226.233 -52.8881 246.756 -20.3163C246.756 -20.3163 279.725 33.0413 249.884 108.696C249.884 108.696 281.185 76.8212 287.312 13.4507C290.255 -16.9523 283.774 -47.6877 265.719 -71.6792C256.762 -83.576 244.473 -96.0823 227.602 -107.987C203.427 -123.873 177.976 -137.749 155.148 -155.812C143.695 -164.883 132.888 -174.975 123.832 -186.682C114.861 -198.278 109.202 -211.789 101.154 -223.987" fill="#BB9960"/>
<path d="M188.584 -33.9941C196.902 -32.0152 224.495 -22.3031 242.274 -4.06603C259.903 14.0285 265.974 34.2682 268.073 42.9434C269.207 49.6398 270.54 62.6211 266.314 77.969C262.066 93.3881 254.28 103.662 249.897 108.696C249.11 99.6176 245.224 66.8795 219.113 41.107C202.703 24.9043 179.663 18.7144 170.238 16.2211C177.103 1.39559 182.031 -13.2479 188.584 -33.9941Z" fill="#BB9960"/>
<path d="M0 -141.208C19.4733 -180.642 34.8122 -223.536 34.3725 -268.455C34.2661 -279.513 32.4082 -290.516 29.0255 -300.988C24.0686 -316.32 15.8921 -330.417 5.60938 -342.464C3.80104 -344.578 1.92889 -346.628 0 -348.615V-356.688C7.97085 -351.599 15.7644 -346.169 23.2034 -340.256C39.684 -327.14 54.6045 -311.412 64.4546 -292.162C93.5156 -235.361 71.8865 -175.561 46.1089 -122.456C26.4655 -81.9929 -12.6796 -28.8649 7.66591 18.8174C28.288 67.1645 91.9768 75.262 129.576 44.9777C159.928 20.5271 174.678 -19.7622 181.862 -59.1649C182.386 -59.1333 182.854 -59.0224 183.273 -58.8404C186.826 -57.2811 186.726 -50.6717 185.351 -46.2391C169.87 3.45364 152.084 56.5262 111.535 86.9609C90.3032 102.895 63.6391 111.158 37.663 108.396C24.4728 107.011 11.545 102.681 0 95.8657V-141.208Z" fill="#BB9960"/>
</g>
</g>
<defs>
<clipPath id="clip0_9_460">
<rect width="288" height="459.738" fill="white" transform="matrix(1 0 0 -1 0 940.5)"/>
</clipPath>
<clipPath id="clip1_9_460">
<rect width="288" height="459.738" fill="white"/>
</clipPath>
</defs>
</svg>
