<svg width="288" height="940" viewBox="0 0 288 940" fill="none" xmlns="http://www.w3.org/2000/svg">
<g opacity="0.5" clip-path="url(#clip0_9_57)">
<g opacity="0.2">
<path d="M288 764.974C285.951 763.24 283.88 761.531 281.781 759.861C258.953 741.798 233.502 727.922 209.327 712.036C192.449 700.131 180.16 687.625 171.21 675.728C153.155 651.737 146.673 621.001 149.616 590.598C155.744 527.228 187.045 495.352 187.045 495.352C157.211 571.008 190.173 624.365 190.173 624.365C210.688 656.937 257.698 683.256 257.698 683.256C267.917 689.105 278.051 695.137 288 701.493V764.974Z" fill="#BB9960"/>
<path d="M248.345 638.043C240.026 636.064 212.433 626.352 194.655 608.115C177.025 590.02 170.955 569.781 168.856 561.105C167.721 554.409 166.388 541.428 170.615 526.08C174.863 510.661 182.649 500.386 187.032 495.352C187.819 504.431 191.705 537.169 217.816 562.942C234.226 579.144 257.266 585.334 266.69 587.828C259.826 602.653 254.897 617.297 248.345 638.043Z" fill="#BB9960"/>
<path d="M288 579.303C270.328 602.914 260.52 633.31 255.067 663.206C254.542 663.174 254.074 663.063 253.656 662.881C250.103 661.322 250.202 654.713 251.578 650.28C261.194 619.418 271.704 587.25 287.993 560.013V579.303H288Z" fill="#BB9960"/>
<path d="M186.846 1164.49C189.704 1152.84 191.286 1140.69 192.045 1128.7C193.385 1107.62 192.045 1084.01 178.074 1067.38C169.011 1056.58 156.559 1049.34 145.078 1041.8C133.221 1034 121.059 1026.73 108.769 1019.71C108.769 1019.71 61.7666 993.388 41.2438 960.816C41.2438 960.816 8.27542 907.458 38.1165 831.803C38.1165 831.803 6.81458 863.678 0.687531 927.049C-2.25545 957.452 4.22617 988.187 22.2811 1012.18C31.2377 1024.08 43.5273 1036.58 60.3979 1048.49C84.5729 1064.37 110.024 1078.25 132.852 1096.31C144.305 1105.38 155.112 1115.47 164.168 1127.18C173.139 1138.78 178.798 1152.29 186.846 1164.49" fill="#BB9960"/>
<path d="M99.416 974.494C91.0977 972.515 63.5046 962.803 45.7262 944.566C28.0968 926.471 22.0265 906.232 19.9274 897.556C18.7927 890.86 17.4595 877.879 21.6861 862.531C25.9339 847.112 33.7203 836.837 38.1029 831.803C38.89 840.882 42.7762 873.62 68.8871 899.393C85.2968 915.595 108.337 921.785 117.762 924.279C110.897 939.104 105.969 953.748 99.416 974.494Z" fill="#BB9960"/>
<path d="M288 1081.71C268.527 1121.14 253.188 1164.04 253.627 1208.96C253.734 1220.01 255.592 1231.02 258.974 1241.49C263.931 1256.82 272.108 1270.92 282.391 1282.96C284.199 1285.08 286.071 1287.13 288 1289.11V1297.19C280.029 1292.1 272.236 1286.67 264.797 1280.76C248.316 1267.64 233.395 1251.91 223.545 1232.66C194.484 1175.86 216.113 1116.06 241.891 1062.96C261.535 1022.49 300.68 969.365 280.334 921.683C259.712 873.335 196.023 865.238 158.424 895.522C128.072 919.973 113.322 960.262 106.138 999.665C105.614 999.633 105.146 999.522 104.727 999.34C101.174 997.781 101.274 991.172 102.649 986.739C118.13 937.046 135.916 883.974 176.465 853.539C197.697 837.605 224.361 829.342 250.337 832.104C263.527 833.489 276.455 837.819 288 844.634V1081.71Z" fill="#BB9960"/>
</g>
</g>
<g opacity="0.5" clip-path="url(#clip1_9_57)">
<g opacity="0.2">
<path d="M288 175.526C285.951 177.26 283.88 178.969 281.781 180.639C258.953 198.702 233.502 212.578 209.327 228.464C192.449 240.369 180.16 252.875 171.21 264.772C153.155 288.763 146.673 319.499 149.616 349.902C155.744 413.272 187.045 445.148 187.045 445.148C157.211 369.492 190.173 316.135 190.173 316.135C210.688 283.563 257.698 257.244 257.698 257.244C267.917 251.395 278.051 245.363 288 239.007V175.526Z" fill="#BB9960"/>
<path d="M248.345 302.457C240.026 304.436 212.433 314.148 194.655 332.385C177.025 350.48 170.955 370.719 168.856 379.395C167.721 386.091 166.388 399.072 170.615 414.42C174.863 429.839 182.649 440.114 187.032 445.148C187.819 436.069 191.705 403.331 217.816 377.558C234.226 361.356 257.266 355.166 266.69 352.672C259.826 337.847 254.897 323.203 248.345 302.457Z" fill="#BB9960"/>
<path d="M288 361.197C270.328 337.586 260.52 307.19 255.067 277.294C254.542 277.326 254.074 277.437 253.656 277.619C250.103 279.178 250.202 285.787 251.578 290.22C261.194 321.082 271.704 353.25 287.993 380.487V361.197H288Z" fill="#BB9960"/>
<path d="M186.846 -223.995C189.704 -212.343 191.286 -200.185 192.045 -188.201C193.385 -167.123 192.045 -143.511 178.074 -126.881C169.011 -116.084 156.559 -108.842 145.078 -101.299C133.221 -93.5019 121.059 -86.2277 108.769 -79.2068C108.769 -79.2068 61.7666 -52.8881 41.2438 -20.3163C41.2438 -20.3163 8.27542 33.0413 38.1165 108.696C38.1165 108.696 6.81458 76.8212 0.687531 13.4507C-2.25545 -16.9523 4.22617 -47.6877 22.2811 -71.6792C31.2377 -83.576 43.5273 -96.0823 60.3979 -107.987C84.5729 -123.873 110.024 -137.749 132.852 -155.812C144.305 -164.883 155.112 -174.975 164.168 -186.682C173.139 -198.278 178.798 -211.789 186.846 -223.987" fill="#BB9960"/>
<path d="M99.416 -33.9941C91.0977 -32.0152 63.5046 -22.3031 45.7262 -4.06603C28.0968 14.0285 22.0265 34.2682 19.9274 42.9434C18.7927 49.6398 17.4595 62.6211 21.6861 77.969C25.9339 93.3881 33.7203 103.662 38.1029 108.696C38.89 99.6176 42.7762 66.8795 68.8871 41.107C85.2968 24.9043 108.337 18.7144 117.762 16.2211C110.897 1.39559 105.969 -13.2479 99.416 -33.9941Z" fill="#BB9960"/>
<path d="M288 -141.208C268.527 -180.642 253.188 -223.536 253.627 -268.455C253.734 -279.513 255.592 -290.516 258.974 -300.988C263.931 -316.32 272.108 -330.417 282.391 -342.464C284.199 -344.578 286.071 -346.628 288 -348.615V-356.688C280.029 -351.599 272.236 -346.169 264.797 -340.256C248.316 -327.14 233.395 -311.412 223.545 -292.162C194.484 -235.361 216.113 -175.561 241.891 -122.456C261.535 -81.9929 300.68 -28.8649 280.334 18.8174C259.712 67.1645 196.023 75.262 158.424 44.9777C128.072 20.5271 113.322 -19.7622 106.138 -59.1649C105.614 -59.1333 105.146 -59.0224 104.727 -58.8404C101.174 -57.2811 101.274 -50.6717 102.649 -46.2391C118.13 3.45364 135.916 56.5262 176.465 86.9609C197.697 102.895 224.361 111.158 250.337 108.396C263.527 107.011 276.455 102.681 288 95.8657V-141.208Z" fill="#BB9960"/>
</g>
</g>
<defs>
<clipPath id="clip0_9_57">
<rect width="288" height="459.738" fill="white" transform="matrix(-1 0 0 -1 288 940.5)"/>
</clipPath>
<clipPath id="clip1_9_57">
<rect width="288" height="459.738" fill="white" transform="matrix(-1 0 0 1 288 0)"/>
</clipPath>
</defs>
</svg>
